<svg width="484" height="178" viewBox="0 0 484 178" fill="none" xmlns="http://www.w3.org/2000/svg">
<g clip-path="url(#clip0_8_131)">
<path d="M0 100.1C0 28.1 17 1.19995 68.6 1.19995C85.6 1.19995 104.4 1.69995 109.2 1.89995C137.5 3.09995 140.9 13.2 140.9 28.5C140.9 40.5 132.5 45.7999 121 45.7999C114.3 45.7999 110.4 51.7999 110.4 57.7999C110.4 66.2 116.4 71.7 123.8 71.7C131.2 71.7 139.2 77.7 139.2 90.4C139.2 103.1 132.5 109.4 120.5 109.4C110.4 109.4 103.7 119.2 103.7 142.8C103.7 167.8 88.8 174 48.3 174C2.9 174 0 163.9 0 100.1Z" fill="#37C77F"/>
<path d="M237.1 155.3C235.7 148.3 234.5 142.3 225.1 142.3C216.2 142.3 214.1 149.3 212.4 156C208.8 170.9 200.4 171.6 179.3 172.1H174.7C154.5 172.1 145.7 168.3 145.7 147.1C145.7 127.7 162.7 25.8999 170.7 12.8999C177.9 1.3999 190.1 0.399902 212.7 0.399902H228C257.3 0.399902 275 0.599899 284.2 33.4999C289.5 52.1999 304.6 137.7 304.6 154C304.6 174.2 294.5 174.9 273.2 174.9C248.4 175 240.5 171.6 237.1 155.3ZM235.2 81.7999C235.2 72.3999 233.3 69.5999 223 69.5999C214.1 69.5999 210.8 70.9999 210.8 81.7999C210.8 92.3999 213.9 93.9999 223 93.9999C232.3 94.0999 235.2 88.9999 235.2 81.7999Z" fill="#37C77F"/>
<path d="M430.1 165.6C422.4 165.6 422.4 174 396.5 174C341.5 174 322.1 164.2 322.1 99.1C322.1 15.3 336.3 0 391.9 0C460.5 0 476.6 18 476.6 84C476.6 116.4 471.8 111.8 471.8 121C471.8 129.9 483.3 131.3 483.3 146.2C483.3 161.6 471.8 177.4 453.8 177.4C444.5 177.4 435.4 165.6 430.1 165.6ZM414 87.8C414 77.5 411.8 72.7 400.8 72.7C391.7 72.7 386.9 79.7 386.9 87.8C386.9 99.1 393.6 101.2 400.8 101.2C408.7 101.3 414 98.4 414 87.8Z" fill="#37C77F"/>
</g>
<defs>
<clipPath id="clip0_8_131">
<rect width="483.4" height="177.4" fill="white"/>
</clipPath>
</defs>
</svg>
