<svg width="1440" height="855" viewBox="0 0 1440 855" fill="none" xmlns="http://www.w3.org/2000/svg">
<rect width="1440" height="496" fill="#C5C6FF"/>
<path d="M-149 569.341C-119.5 450.841 -12.5 179.878 318.5 378.878C564.569 526.816 672.5 487.378 889 405.878C1105.5 324.378 1179 447.914 1309.5 378.878C1478.81 289.311 1576.5 340.841 1688 425.341C1799.03 509.483 1537.24 851.426 1550.81 854.323C1551.23 854.335 1551.29 854.341 1551 854.341C1550.93 854.341 1550.87 854.335 1550.81 854.323C1533.1 853.797 879.244 842.205 547 836.341L-76.5 803.841L-149 569.341Z" fill="white"/>
<g style="mix-blend-mode:soft-light">
<path d="M465.844 399.559C382.961 491.78 235.32 395.411 171.86 335.698C42.7891 226.461 361.367 129.327 454.359 131.598C547.35 133.869 569.448 284.281 465.844 399.559Z" fill="#C5C6FF"/>
</g>
<g style="mix-blend-mode:soft-light">
<path d="M1507.84 399.559C1424.96 491.78 1277.32 395.411 1213.86 335.698C1084.79 226.461 1403.37 129.327 1496.36 131.598C1589.35 133.869 1611.45 284.281 1507.84 399.559Z" fill="#C5C6FF"/>
</g>
<g style="mix-blend-mode:soft-light">
<path d="M927.386 281.779C898.081 244.374 892.531 216.355 919.281 196.368C969.079 154.905 1084.52 233.605 1029.28 295.234C1005.49 321.78 964.016 328.536 927.386 281.779Z" fill="#C5C6FF"/>
</g>
<g style="mix-blend-mode:soft-light">
<path d="M-62.6143 180.779C-91.9187 143.374 -97.4694 115.355 -70.7191 95.3675C-20.921 53.9051 94.5209 132.605 39.2838 194.234C15.4918 220.78 -25.9839 227.536 -62.6143 180.779Z" fill="#C5C6FF"/>
</g>
</svg>
