<svg width="1440" height="546" viewBox="0 0 1440 546" fill="none" xmlns="http://www.w3.org/2000/svg">
<path d="M1749 261.178C1716.44 142.752 1598.33 -128.042 1232.99 70.8333C961.38 218.68 842.249 179.266 603.282 97.8165C364.315 16.3675 283.187 139.827 139.145 70.8334C-47.735 -18.6778 -155.563 32.8208 -278.634 117.268C-401.183 201.357 -112.224 543.086 -127.209 545.982C-127.666 545.994 -127.739 546 -127.417 546C-127.342 546 -127.273 545.994 -127.209 545.982C-107.658 545.456 614.05 533.871 980.773 528.011L1668.98 495.531L1749 261.178Z" fill="#B4FFC7"/>
<g style="mix-blend-mode:soft-light">
<path d="M439.844 382.559C356.961 474.78 209.32 378.411 145.86 318.698C16.7891 209.461 335.367 112.327 428.359 114.598C521.35 116.869 543.448 267.281 439.844 382.559Z" fill="#D4FFE8"/>
</g>
<g style="mix-blend-mode:soft-light">
<path d="M1373.68 140.136C1354.93 160.995 1321.54 139.198 1307.18 125.692C1277.99 100.984 1350.05 79.014 1371.08 79.5276C1392.11 80.0413 1397.11 114.062 1373.68 140.136Z" fill="#D4FFE8"/>
</g>
<g style="mix-blend-mode:soft-light">
<path d="M781.052 430.608C722.57 463.776 646.788 401.056 649.584 288.123C651.052 228.854 775.598 185.64 855.808 193.356C936.018 201.072 993.259 180.618 1000 247C1008.59 331.618 846.073 393.733 781.052 430.608Z" fill="#CCFFE1"/>
</g>
</svg>
