<svg width="225" height="67" viewBox="0 0 225 67" fill="none" xmlns="http://www.w3.org/2000/svg">
<g clip-path="url(#clip0_8_29)">
<path d="M0 33.2499C0 5.68799 1.75602 0 17.1403 0C28.7835 0 32.9827 5.22989 32.9827 16.8731C32.9827 62.7587 30.425 66.4235 16.4913 66.4235C0.992535 66.4235 0 60.201 0 33.2499Z" fill="#FF7C7C"/>
<path d="M40.3122 30.6922C40.3122 5.68797 43.1371 0.534424 56.8035 0.534424C66.4998 0.534424 71.2716 10.1544 76.8833 10.1544C77.8758 10.1544 78.5248 9.42906 78.9829 7.40582C80.3571 0.801645 81.7314 0.534424 87.763 0.534424C97.1921 0.534424 98.2991 8.70375 98.2991 30.6922C98.2991 57.4525 98.2991 65.5073 82.2659 65.5073C67.9886 65.5073 66.6907 52.6807 59.5521 52.6807C57.4525 52.6807 57.2616 56.6126 57.2616 57.9869C57.2616 60.0102 56.9944 65.5836 49.7413 65.5836C41.7628 65.5836 40.3122 60.0102 40.3122 30.6922Z" fill="#FF7C7C"/>
<path d="M105.629 37.9454C105.629 10.4598 112.118 0.190857 131.816 0.190857C138.306 0.190857 145.483 0.381729 147.315 0.458078C158.118 0.916171 159.416 4.77179 159.416 10.6125C159.416 15.1934 156.21 17.2166 151.82 17.2166C149.262 17.2166 147.773 19.5071 147.773 21.7976C147.773 25.0042 150.064 27.1038 152.889 27.1038C155.713 27.1038 158.767 29.3943 158.767 34.2424C158.767 39.0906 156.21 41.4956 151.629 41.4956C147.773 41.4956 145.215 45.2367 145.215 54.2458C145.215 63.7894 139.527 66.1562 124.067 66.1562C106.736 66.1562 105.629 62.3006 105.629 37.9454Z" fill="#FF7C7C"/>
<path d="M166.746 34.357C166.746 8.78012 171.06 0.076355 195.987 0.076355C222.29 0.076355 225.038 7.59672 225.038 36.2657C225.038 59.094 217.785 65.7745 194.728 65.7745C172.892 65.7745 166.746 58.445 166.746 34.357ZM200.912 33.1736C200.912 29.776 200.378 28.4018 196.14 28.4018C193.201 28.4018 191.368 28.8599 191.368 33.1736C191.368 36.1894 193.01 37.9454 196.14 37.9454C199.652 37.9454 200.912 37.1819 200.912 33.1736Z" fill="#FF7C7C"/>
</g>
<defs>
<clipPath id="clip0_8_29">
<rect width="225" height="66.4235" fill="white"/>
</clipPath>
</defs>
</svg>
