<svg width="304" height="85" viewBox="0 0 304 85" fill="none" xmlns="http://www.w3.org/2000/svg">
<g clip-path="url(#clip0_8_37)">
<path d="M0 46.1716C0 5.37547 1.6308 1.9198 21.776 1.9198C30.4096 1.9198 34.4386 4.79953 34.9183 8.73516C35.254 11.6149 37.1246 15.7425 40.674 15.7425C45.8542 15.7425 46.4298 11.8069 48.2524 8.2552C49.8832 5.03951 52.3774 2.01579 59.668 2.01579C68.0619 2.01579 80.8684 2.59174 83.3626 15.3585C84.7536 22.2699 86.1445 56.1547 86.1445 66.0418C86.1445 75.2569 83.5065 82.8402 74.1534 82.8402C68.9732 82.8402 61.2509 82.7442 60.2436 76.4088C59.764 73.529 58.6128 72.9531 55.639 72.9531C52.6652 72.9531 51.3702 82.4082 42.8804 82.4082C34.9183 82.4082 36.4531 71.9452 30.4576 71.9452C24.9416 71.9452 27.0041 76.0728 24.9416 78.8565C23.2149 81.4003 19.8574 83.8001 15.4926 83.8001C4.50868 83.8481 0 80.5364 0 46.1716Z" fill="white"/>
<path d="M95.3058 43.2919C95.3058 8.63918 97.5122 1.48785 116.842 1.48785C131.471 1.48785 136.747 8.06324 136.747 22.7019C136.747 80.3924 133.534 85 116.027 85C96.6008 85 95.3058 77.1767 95.3058 43.2919Z" fill="white"/>
<path d="M145.956 40.0762C145.956 8.63918 149.506 2.15979 166.677 2.15979C178.86 2.15979 184.856 14.2547 191.907 14.2547C193.154 14.2547 193.969 13.3427 194.545 10.799C196.271 2.49576 197.998 2.15979 205.576 2.15979C217.424 2.15979 218.815 12.4308 218.815 40.0762C218.815 73.7211 218.815 83.8481 198.67 83.8481C180.731 83.8481 179.1 67.7216 170.131 67.7216C167.493 67.7216 167.253 72.6652 167.253 74.393C167.253 76.9368 166.917 83.9441 157.804 83.9441C147.827 83.9921 145.956 76.9368 145.956 40.0762Z" fill="white"/>
<path d="M240.83 72.6652L241.07 40.3162C241.07 35.2287 239.439 33.4049 233.588 33.4049C228.312 33.4049 224.618 28.8933 224.618 18.6702C224.618 2.06381 235.65 0 263.854 0C289.419 0 304.048 3.79164 304.048 17.1824C304.048 31.1011 299.539 33.7888 294.023 33.7888C287.356 33.7888 287.452 35.5167 287.452 40.2202C287.452 46.0757 288.028 64.074 288.028 73.3851C288.028 80.7764 280.066 84.424 263.854 84.424C251.287 84.424 240.83 83.2722 240.83 72.6652Z" fill="white"/>
</g>
<defs>
<clipPath id="clip0_8_37">
<rect width="304" height="85" fill="white"/>
</clipPath>
</defs>
</svg>
