<svg width="82" height="96" viewBox="0 0 82 96" fill="none" xmlns="http://www.w3.org/2000/svg">
<rect x="0.379517" y="8" width="81.3795" height="79" rx="39.5" fill="#989AFF"/>
<path d="M27.1268 40.2H55.3668C55.9535 40.2 56.4602 40.4133 56.8868 40.84C57.3135 41.2667 57.5268 41.7733 57.5268 42.36V53.72C57.5268 54.3067 57.3135 54.8133 56.8868 55.24C56.4602 55.6667 55.9535 55.88 55.3668 55.88H27.1268C26.5402 55.88 26.0335 55.6667 25.6068 55.24C25.1802 54.8133 24.9668 54.3067 24.9668 53.72V42.36C24.9668 41.7733 25.1802 41.2667 25.6068 40.84C26.0335 40.4133 26.5402 40.2 27.1268 40.2Z" fill="white"/>
</svg>
