<svg width="82" height="96" viewBox="0 0 82 96" fill="none" xmlns="http://www.w3.org/2000/svg">
<rect y="8" width="81.3795" height="79" rx="39.5" fill="#989AFF"/>
<path d="M33.9333 67.08V54.2H21.5333C20.9466 54.2 20.4399 53.9867 20.0133 53.56C19.5866 53.1333 19.3733 52.6267 19.3733 52.04V43.32C19.3733 42.7333 19.5866 42.2267 20.0133 41.8C20.4399 41.3733 20.9466 41.16 21.5333 41.16H33.9333V28.68C33.9333 28.0933 34.1466 27.5867 34.5733 27.16C34.9999 26.7333 35.5066 26.52 36.0933 26.52H45.8533C46.4399 26.52 46.9466 26.7333 47.3733 27.16C47.7999 27.5867 48.0133 28.0933 48.0133 28.68V41.16H60.2533C60.8399 41.16 61.3466 41.3733 61.7733 41.8C62.1999 42.2267 62.4133 42.7333 62.4133 43.32V52.04C62.4133 52.6267 62.1999 53.1333 61.7733 53.56C61.3466 53.9867 60.8399 54.2 60.2533 54.2H48.0133V67.08C48.0133 67.6667 47.7999 68.1733 47.3733 68.6C46.9466 69.0267 46.4399 69.24 45.8533 69.24H36.0933C35.5066 69.24 34.9999 69.0267 34.5733 68.6C34.1466 68.1733 33.9333 67.6667 33.9333 67.08Z" fill="white"/>
</svg>
