<svg width="547" height="80" viewBox="0 0 547 80" fill="none" xmlns="http://www.w3.org/2000/svg">
<path d="M34.7468 64.8668C32.252 64.8668 31.5715 68.0421 31.0272 70.9452C29.9385 77.2505 26.1282 79.0196 16.1033 79.0196C4.76295 79.0196 0 74.8917 0 39.8273C0 4.76292 1.54229 0.317505 37.8768 0.317505C57.7904 0.317505 70.3102 5.98768 70.3102 20.6848C70.3102 39.8273 61.2833 37.8768 61.2833 43.2294C61.2833 46.4047 72.2607 52.8007 72.2607 60.9657C72.2607 70.4462 64.64 79.2464 55.2956 79.2464C43.0933 79.2464 38.1943 64.8668 34.7468 64.8668ZM40.0541 29.621C40.0541 25.357 39.1923 24.0869 34.52 24.0869C30.4829 24.0869 28.9859 24.7219 28.9859 29.621C28.9859 34.4293 30.3921 35.1551 34.52 35.1551C38.7386 35.1551 40.0541 32.887 40.0541 29.621Z" fill="#7C82FF"/>
<path d="M78.8381 41.3696C78.8381 10.9774 83.964 0.63501 113.585 0.63501C144.839 0.63501 148.105 9.57121 148.105 43.6376C148.105 70.7637 139.486 78.702 112.088 78.702C86.096 78.702 78.8381 69.9926 78.8381 41.3696ZM119.437 39.9634C119.437 35.9262 118.802 34.2932 113.766 34.2932C110.274 34.2932 108.096 34.8375 108.096 39.9634C108.096 43.5469 110.047 45.6335 113.766 45.6335C117.894 45.6335 119.437 44.7263 119.437 39.9634Z" fill="#7C82FF"/>
<path d="M196.052 70.6731C195.417 67.4978 194.873 64.7761 190.609 64.7761C186.571 64.7761 185.619 67.9514 184.848 70.9906C183.215 77.7495 179.404 78.067 169.833 78.2938H167.746C158.583 78.2938 154.592 76.5701 154.592 66.9534C154.592 58.1533 162.303 11.9754 165.932 6.07843C169.198 0.861866 174.732 0.453613 184.984 0.453613H191.969C205.26 0.453613 213.289 0.544335 217.463 15.4682C219.867 23.9508 226.716 62.7348 226.716 70.1287C226.716 79.2917 222.135 79.6093 212.473 79.6093C201.178 79.5639 197.594 78.067 196.052 70.6731ZM195.19 37.3324C195.19 33.0685 194.328 31.7983 189.656 31.7983C185.619 31.7983 184.122 32.4334 184.122 37.3324C184.122 42.1408 185.528 42.8665 189.656 42.8665C193.875 42.9119 195.19 40.5985 195.19 37.3324Z" fill="#7C82FF"/>
<path d="M234.292 34.384C234.292 2.17735 236.469 0 259.422 0C290.993 0 297.979 14.9239 297.979 43.8645C297.979 64.5493 286.775 79.7 263.459 79.7C234.292 79.7 234.292 74.6649 234.292 34.384ZM271.397 39.1015C271.397 34.8376 270.535 33.5674 265.863 33.5674C261.826 33.5674 260.329 34.2025 260.329 39.1015C260.329 43.9098 261.735 44.6356 265.863 44.6356C270.082 44.6356 271.397 42.3676 271.397 39.1015Z" fill="#7C82FF"/>
<path d="M306.688 42.7759C306.688 4.21866 308.231 0.952637 327.283 0.952637C335.448 0.952637 339.258 3.67432 339.712 7.39396C340.029 10.1156 341.798 14.0167 345.155 14.0167C350.054 14.0167 350.598 10.2971 352.322 6.94034C353.864 3.90113 356.223 1.04336 363.118 1.04336C371.056 1.04336 383.168 1.5877 385.527 13.6538C386.842 20.1859 388.158 52.211 388.158 61.5555C388.158 70.2649 385.663 77.432 376.817 77.432C371.918 77.432 364.615 77.3412 363.662 71.3535C363.209 68.6319 362.12 68.0875 359.308 68.0875C356.495 68.0875 355.271 77.0237 347.242 77.0237C339.712 77.0237 341.163 67.1349 335.493 67.1349C330.276 67.1349 332.227 71.036 330.276 73.667C328.643 76.0711 325.468 78.3392 321.34 78.3392C310.907 78.3846 306.688 75.2093 306.688 42.7759Z" fill="#7C82FF"/>
<path d="M437.193 70.6731C436.558 67.4978 436.014 64.7761 431.75 64.7761C427.713 64.7761 426.76 67.9514 425.989 70.9906C424.356 77.7495 420.546 78.067 410.974 78.2938H408.888C399.725 78.2938 395.733 76.5701 395.733 66.9534C395.733 58.1533 403.444 11.9754 407.073 6.07843C410.339 0.861866 415.873 0.453613 426.125 0.453613H433.111C446.402 0.453613 454.431 0.544335 458.604 15.4682C461.008 23.9508 467.858 62.7348 467.858 70.1287C467.858 79.2917 463.276 79.6093 453.614 79.6093C442.319 79.5639 438.736 78.067 437.193 70.6731ZM436.331 37.3324C436.331 33.0685 435.47 31.7983 430.797 31.7983C426.76 31.7983 425.263 32.4334 425.263 37.3324C425.263 42.1408 426.669 42.8665 430.797 42.8665C435.016 42.9119 436.331 40.5985 436.331 37.3324Z" fill="#7C82FF"/>
<path d="M475.433 38.3304C475.433 2.0866 487.499 0.544312 510.361 0.544312C536.399 0.544312 546.378 6.62274 546.378 27.5344C546.378 43.0026 543.339 54.7512 531.681 57.7904C526.555 59.1059 526.464 61.2832 526.464 64.0957C526.464 77.2505 516.122 78.702 500.563 78.702C474.979 78.702 475.433 66.4998 475.433 38.3304ZM516.44 28.623C516.44 24.3591 515.578 23.0889 510.906 23.0889C506.868 23.0889 505.371 23.724 505.371 28.623C505.371 33.4313 506.778 34.1571 510.906 34.1571C515.17 34.2025 516.44 31.889 516.44 28.623Z" fill="#7C82FF"/>
</svg>
