<svg width="804" height="70" viewBox="0 0 804 70" fill="none" xmlns="http://www.w3.org/2000/svg">
<g clip-path="url(#clip0_8_16)">
<path d="M39.8458 57.381C32.6046 57.381 36.2839 67.636 22.5453 67.636C9.31561 67.636 0 29.0428 0 18.1224C0 6.84972 2.89645 0.547977 13.1515 0.547977C21.6842 0.547977 19.0618 11.8989 25.7549 11.8989C32.8004 11.8989 24.6198 0.821966 38.241 0.821966C50.9227 0.861107 44.1513 11.7424 52.0578 11.7424C58.7118 11.7424 54.876 0 62.8608 0C71.785 0 78.7522 4.89265 78.7522 14.1691C78.7522 33.4266 69.1625 67.9883 55.3457 67.9883C43.9556 68.0275 46.7738 57.381 39.8458 57.381Z" fill="#FEC997"/>
<path d="M117.815 61.1386C117.267 58.3987 116.797 56.0503 113.118 56.0503C109.635 56.0503 108.813 58.7901 108.147 61.4126C106.738 67.2447 103.45 67.5186 95.1915 67.7143H93.391C85.4845 67.7143 82.04 66.227 82.04 57.929C82.04 50.3356 88.694 10.4899 91.8253 5.4015C94.6435 0.900262 99.4187 0.50885 108.265 0.50885H114.292C125.761 0.50885 132.689 0.587133 136.29 13.4646C138.364 20.784 144.275 54.2498 144.275 60.6298C144.275 68.5363 140.321 68.8103 131.984 68.8103C122.199 68.8494 119.107 67.5578 117.815 61.1386ZM117.032 32.409C117.032 28.7297 116.289 27.6337 112.257 27.6337C108.773 27.6337 107.482 28.1817 107.482 32.409C107.482 36.5579 108.695 37.1842 112.257 37.1842C115.936 37.1842 117.032 35.2271 117.032 32.409Z" fill="#FEC997"/>
<path d="M150.772 30.3344C150.772 1.95706 153.864 0.0782776 168.425 0.0782776C188.426 0.0782776 191.988 1.09595 191.988 14.8345C191.988 20.9406 191.596 42.1551 191.596 43.6816C191.596 46.9695 193.201 47.2435 197.624 47.2435C202.986 47.2435 204.591 51.7447 204.591 55.6197C204.591 66.8924 199.151 68.4971 181.185 68.4971C152.651 68.4971 150.772 63.6828 150.772 30.3344Z" fill="#FEC997"/>
<path d="M240.405 57.107C238.057 57.107 236.57 58.9858 236.256 62.352C235.787 67.7143 231.168 67.7926 226.197 67.7926C212.106 67.7926 210.228 64.9744 210.228 39.8066C210.228 8.72848 211.167 0.900238 224.788 0.900238C233.517 0.900238 234.847 3.79669 235.317 7.67167C235.591 9.74616 236.178 12.5643 237.587 12.5643C242.01 12.5643 244.554 0.900238 254.77 0.900238C262.755 0.900238 268.939 9.74616 268.939 18.005C268.939 26.3812 254.77 28.8079 254.77 32.6438C254.77 36.4013 270.544 38.9455 270.544 49.7485C270.544 57.929 264.36 68.0666 256.649 68.0666C249.486 68.1057 243.772 57.107 240.405 57.107Z" fill="#FEC997"/>
<path d="M276.18 34.7574C276.18 6.49745 277.981 0.665405 293.755 0.665405C305.693 0.665405 309.998 6.02775 309.998 17.9267C309.998 64.9744 307.376 68.732 293.089 68.732C277.198 68.7711 276.18 62.3911 276.18 34.7574Z" fill="#FEC997"/>
<path d="M317.514 32.1349C317.514 6.49744 320.41 1.21338 334.423 1.21338C344.365 1.21338 349.257 11.077 355.011 11.077C356.029 11.077 356.694 10.3333 357.164 8.2588C358.573 1.48737 359.982 1.21338 366.166 1.21338C375.834 1.21338 376.969 9.5896 376.969 32.1349C376.969 59.5729 376.969 67.8317 360.53 67.8317C345.891 67.8317 344.56 54.6803 337.241 54.6803C335.088 54.6803 334.892 58.7118 334.892 60.1209C334.892 62.1954 334.618 67.91 327.182 67.91C319.001 67.91 317.514 62.1954 317.514 32.1349Z" fill="#FEC997"/>
<path d="M384.015 45.169C384.015 7.20199 385.972 0.469696 419.711 0.469696C436.151 0.469696 441.122 4.69695 441.122 15.8913C441.122 25.0895 434.937 25.0895 421.59 25.0895C415.954 25.0895 413.684 28.1817 413.684 34.2877C413.684 36.8319 413.684 41.1374 418.107 41.1374C421.12 41.1374 422.256 39.4544 422.256 37.1842C422.256 33.818 423.391 31.4696 429.301 31.4696C438.891 31.4696 442.452 34.092 442.452 44.1513C442.452 66.1487 436.072 68.4972 410.983 68.4972C392.939 68.4972 384.015 61.6083 384.015 45.169Z" fill="#FEC997"/>
<path d="M487.543 29.8648C487.543 2.07449 489.422 0.195709 509.227 0.195709C536.47 0.195709 542.497 13.0732 542.497 38.0453C542.497 55.8937 532.829 68.9668 512.711 68.9668C487.543 68.9668 487.543 64.6222 487.543 29.8648ZM519.561 33.8963C519.561 30.217 518.817 29.1211 514.785 29.1211C511.302 29.1211 510.01 29.6691 510.01 33.8963C510.01 38.0453 511.224 38.6715 514.785 38.6715C518.425 38.7107 519.561 36.7145 519.561 33.8963Z" fill="#FEC997"/>
<path d="M550.012 35.8925C550.012 9.66788 554.435 0.743683 579.995 0.743683C606.963 0.743683 609.781 8.4545 609.781 37.8496C609.781 61.256 602.344 68.1057 578.703 68.1057C556.314 68.1057 550.012 60.5906 550.012 35.8925ZM585.044 34.6791C585.044 31.1956 584.496 29.7865 580.151 29.7865C577.137 29.7865 575.259 30.2562 575.259 34.6791C575.259 37.7713 576.942 39.5718 580.151 39.5718C583.713 39.5326 585.044 38.789 585.044 34.6791Z" fill="#FEC997"/>
<path d="M616.318 35.8925C616.318 9.66788 620.741 0.743683 646.3 0.743683C673.268 0.743683 676.086 8.4545 676.086 37.8496C676.086 61.256 668.65 68.1057 645.008 68.1057C622.62 68.1057 616.318 60.5906 616.318 35.8925ZM651.349 34.6791C651.349 31.1956 650.801 29.7865 646.456 29.7865C643.443 29.7865 641.564 30.2562 641.564 34.6791C641.564 37.7713 643.247 39.5718 646.456 39.5718C650.057 39.5326 651.349 38.789 651.349 34.6791Z" fill="#FEC997"/>
<path d="M682.662 29.8648C682.662 2.07449 684.541 0.195709 704.346 0.195709C731.589 0.195709 737.616 13.0732 737.616 38.0453C737.616 55.8937 727.948 68.9668 707.83 68.9668C682.662 68.9668 682.662 64.6222 682.662 29.8648ZM714.68 33.8963C714.68 30.217 713.936 29.1211 709.904 29.1211C706.421 29.1211 705.129 29.6691 705.129 33.8963C705.129 38.0453 706.343 38.6715 709.904 38.6715C713.544 38.7107 714.68 36.7145 714.68 33.8963Z" fill="#FEC997"/>
<path d="M745.131 56.1676C745.131 50.0616 746.815 48.2611 748.889 48.2611C752.921 48.2611 754.917 49.5919 756.6 49.5919C758.009 49.5919 761.101 49.3962 761.101 46.3041C761.101 42.5465 759.496 41.3331 756.404 39.8066C747.871 35.7751 744.192 30.9607 744.192 22.0365C744.192 4.3838 759.614 0.234833 773.587 0.234833C784.39 0.234833 801.573 1.83962 801.573 16.7524C801.573 20.4317 800.242 23.3282 797.894 23.3282C796.015 23.3282 793.745 21.9191 790.3 21.9191C788.891 21.9191 786.269 22.6628 786.269 26.2246C786.269 31.3912 804.039 31.7827 804.039 48.222C804.039 63.9959 795.585 69.0842 775.309 69.0842C758.087 69.1234 745.131 67.8317 745.131 56.1676Z" fill="#FEC997"/>
</g>
<defs>
<clipPath id="clip0_8_16">
<rect width="804" height="69.1234" fill="white"/>
</clipPath>
</defs>
</svg>
